<svg width="12" height="12" viewBox="0 0 12 12" fill="none" xmlns="http://www.w3.org/2000/svg">
<path d="M10.5286 3.59039C10.5332 3.69599 10.5332 3.79679 10.5332 3.90239C10.5378 7.104 8.18559 10.8 3.88396 10.8C2.61524 10.8 1.36967 10.4208 0.300049 9.71041C0.485264 9.73441 0.670479 9.74401 0.855695 9.74401C1.90679 9.74401 2.93011 9.37921 3.75894 8.7024C2.75878 8.6832 1.87901 8.0064 1.5734 7.0176C1.92531 7.0896 2.28648 7.0752 2.62913 6.9744C1.54099 6.7536 0.758457 5.76 0.753826 4.60319C0.753826 4.59359 0.753826 4.58399 0.753826 4.57439C1.07795 4.76159 1.44375 4.86719 1.81418 4.87679C0.790869 4.16639 0.471373 2.75039 1.09184 1.64158C2.28185 3.15839 4.03214 4.07519 5.91207 4.17599C5.72223 3.33599 5.98153 2.45279 6.58811 1.85758C7.52807 0.940781 9.0098 0.988781 9.89883 1.96318C10.4221 1.85758 10.9268 1.65598 11.3852 1.37278C11.2092 1.93438 10.8434 2.40959 10.3572 2.71199C10.8203 2.65439 11.2741 2.52479 11.7 2.33278C11.3852 2.82239 10.987 3.24479 10.5286 3.59039Z" fill="#AC8856"/>
</svg>
