<svg width="12" height="12" viewBox="0 0 12 12" fill="none" xmlns="http://www.w3.org/2000/svg">
<path d="M11.7528 3.11464C11.6144 2.60064 11.2092 2.19537 10.6952 2.05699C9.75614 1.79999 5.99997 1.79999 5.99997 1.79999C5.99997 1.79999 2.24381 1.79999 1.30477 2.0471C0.800656 2.18549 0.385501 2.60064 0.247116 3.11464C0 4.05368 0 6.00096 0 6.00096C0 6.00096 0 7.95812 0.247116 8.88727C0.385501 9.40127 0.790771 9.80654 1.30477 9.94493C2.2537 10.2019 5.99997 10.2019 5.99997 10.2019C5.99997 10.2019 9.75614 10.2019 10.6952 9.95481C11.2092 9.81643 11.6144 9.41116 11.7528 8.89716C11.9999 7.95812 11.9999 6.01084 11.9999 6.01084C11.9999 6.01084 12.0098 4.05368 11.7528 3.11464Z" fill="#AC8856"/>
<path d="M4.80396 7.79997L7.9275 6.00097L4.80396 4.20197V7.79997Z" fill="#E8E8E8"/>
</svg>
